<?xml version="1.0" standalone="no"?>
<!DOCTYPE svg PUBLIC "-//W3C//DTD SVG 20010904//EN"
 "http://www.w3.org/TR/2001/REC-SVG-20010904/DTD/svg10.dtd">
<svg version="1.0" xmlns="http://www.w3.org/2000/svg"
 width="192.000000pt" height="192.000000pt" viewBox="0 0 192.000000 192.000000"
 preserveAspectRatio="xMidYMid meet">

<g transform="translate(0.000000,192.000000) scale(0.100000,-0.100000)"
fill="#000000" stroke="none">
<path d="M408 1477 c-21 -12 -46 -33 -55 -47 -17 -24 -193 -349 -193 -356 0
-2 98 -4 218 -4 l217 0 45 87 c25 48 75 143 113 211 37 68 67 126 67 128 0 2
-84 4 -187 4 -178 0 -190 -1 -225 -23z"/>
<path d="M1483 1478 c-17 -20 -73 -114 -73 -124 0 -9 123 -3 140 6 17 9 80
113 80 132 0 4 -28 8 -63 8 -53 0 -67 -4 -84 -22z"/>
<path d="M1105 1322 c-21 -13 -48 -52 -88 -129 -31 -61 -57 -113 -57 -117 0
-3 58 -6 129 -6 125 0 130 1 161 26 24 21 94 141 138 237 2 4 -54 7 -125 7
-107 0 -133 -3 -158 -18z"/>
<path d="M508 896 c-49 -89 -88 -166 -88 -169 0 -4 75 -7 168 -7 l167 0 88
164 c48 89 87 166 87 169 0 4 -75 7 -167 7 l-168 0 -87 -164z"/>
<path d="M1407 1013 c-49 -79 -109 -203 -105 -220 2 -12 12 -18 28 -18 21 0
25 4 23 29 -3 39 54 145 83 156 29 11 38 28 25 44 -6 7 -9 21 -5 30 12 32 -26
16 -49 -21z"/>
<path d="M1049 1000 c-36 -3 -72 -10 -80 -17 -20 -16 -115 -200 -108 -207 15
-15 37 10 83 94 34 63 55 90 68 90 26 0 23 -12 -22 -94 -46 -83 -50 -102 -20
-86 10 6 41 49 67 95 32 58 53 85 65 85 25 0 23 -8 -23 -94 -43 -82 -47 -110
-12 -79 29 24 105 168 101 190 -4 22 -40 29 -119 23z"/>
<path d="M1270 999 c-39 -16 -58 -37 -100 -115 -47 -84 -49 -101 -14 -110 48
-12 87 17 138 105 49 85 53 100 34 119 -14 14 -24 14 -58 1z m12 -52 c1 -20
-65 -127 -78 -127 -8 0 -14 2 -14 5 0 9 51 108 63 123 10 13 28 12 29 -1z"/>
<path d="M1506 979 c-33 -26 -108 -172 -100 -194 8 -21 53 -19 91 5 35 21 113
150 113 188 0 19 -5 22 -39 22 -24 0 -48 -8 -65 -21z m44 -34 c0 -25 -61 -125
-76 -125 -20 0 -18 5 21 77 35 61 55 79 55 48z"/>
<path d="M713 630 c-25 -47 -54 -99 -64 -116 -11 -17 -19 -34 -19 -38 0 -3 46
-6 103 -6 76 0 108 4 124 15 19 13 133 201 133 218 0 3 -52 7 -116 9 l-116 3
-45 -85z"/>
<path d="M1421 586 c-71 -132 -75 -156 -30 -156 29 0 30 2 24 30 -8 37 47 146
79 156 28 9 37 25 24 41 -5 7 -8 20 -4 28 3 10 -1 15 -14 15 -14 0 -35 -30
-79 -114z"/>
<path d="M1055 651 c-29 -12 -40 -28 -95 -131 -44 -83 -47 -91 -27 -88 15 2
35 27 68 86 54 98 65 110 80 95 8 -8 0 -33 -32 -92 -23 -44 -40 -83 -37 -86
15 -15 43 15 78 84 42 85 65 110 81 94 8 -8 -3 -37 -36 -98 -46 -83 -47 -87
-24 -83 18 2 34 22 67 83 24 44 44 94 45 110 l2 30 -75 2 c-41 1 -84 -2 -95
-6z"/>
<path d="M1301 638 c-38 -27 -117 -168 -108 -192 9 -23 69 -20 100 4 27 21
107 159 107 183 0 33 -55 35 -99 5z m13 -98 c-21 -38 -44 -70 -51 -70 -19 0
-17 9 19 77 22 42 39 63 51 63 16 0 13 -10 -19 -70z"/>
<path d="M1573 640 c-18 -11 -33 -24 -33 -30 0 -13 26 -13 51 0 15 8 19 7 19
-4 0 -34 -13 -46 -49 -46 -46 0 -54 -6 -80 -58 -32 -63 -25 -72 58 -69 67 2
70 3 65 24 -4 15 7 48 32 96 22 44 35 80 31 90 -9 23 -54 22 -94 -3z m-3 -127
c-1 -14 -27 -43 -39 -43 -15 0 -14 23 1 38 13 13 38 16 38 5z"/>
</g>
</svg>
