<svg version="1.1" id="Layer_1" xmlns="http://www.w3.org/2000/svg" xmlns:xlink="http://www.w3.org/1999/xlink" x="0px" y="0px"
	 width="100%" viewBox="0 0 192 192" enable-background="new 0 0 192 192" xml:space="preserve">
<path fill="#FDFDFD" opacity="1.000000" stroke="none" 
	d="
M130.000000,193.000000 
	C86.694565,193.000000 43.889133,193.000000 1.041850,193.000000 
	C1.041850,129.069611 1.041850,65.139183 1.041850,1.104380 
	C64.888573,1.104380 128.777374,1.104380 192.833099,1.104380 
	C192.833099,64.999641 192.833099,128.999786 192.833099,193.000000 
	C172.139481,193.000000 151.319733,193.000000 130.000000,193.000000 
M133.965744,104.901115 
	C132.850281,107.192703 131.547226,109.419212 130.717896,111.810051 
	C130.414581,112.684456 130.911194,114.336761 131.627197,114.935776 
	C132.492996,115.660126 134.191727,116.169975 135.132614,115.789627 
	C135.965973,115.452728 136.310120,113.791985 136.774536,112.675850 
	C138.752762,107.921600 139.445053,101.564339 142.967651,98.790947 
	C147.370667,95.324417 147.775909,92.422440 146.452759,87.632179 
	C140.741379,88.973846 139.987061,94.483032 136.777374,97.997719 
	C136.260635,97.658432 135.743896,97.319145 135.275467,96.167625 
	C135.214157,95.359833 135.152847,94.552040 135.009613,93.369919 
	C134.881271,93.124214 134.680069,92.980614 133.689911,92.590355 
	C128.083115,91.193886 124.152069,93.806801 120.154259,98.000595 
	C119.446396,98.000610 118.738541,98.000618 118.171539,97.150002 
	C118.964203,93.642761 117.348412,92.133308 113.971832,92.121414 
	C110.642311,92.109688 107.222946,91.659874 104.011353,92.277573 
	C101.417908,92.776382 98.123604,93.940399 96.797920,95.919632 
	C92.692909,102.048386 89.379349,108.707245 85.758568,115.160324 
	C86.201691,115.602615 86.644814,116.044907 87.087929,116.487198 
	C88.696594,115.262878 90.785332,114.349121 91.818268,112.752365 
	C94.295288,108.923279 96.165649,104.706795 98.520279,100.790619 
	C99.294479,99.502998 100.804367,98.657730 101.977844,97.610184 
	C102.299011,97.948738 102.620178,98.287285 102.941345,98.625839 
	C100.059601,104.194519 97.177856,109.763191 94.211411,115.495552 
	C97.984276,116.398453 99.938492,115.302750 101.366180,112.136757 
	C103.285675,107.880112 105.677002,103.820381 108.100868,99.818497 
	C108.684624,98.854683 110.193092,98.450943 111.276299,97.789635 
	C111.429321,98.073761 111.582344,98.357880 111.735367,98.642006 
	C109.007874,104.163330 106.280380,109.684654 103.552887,115.205978 
	C104.344124,115.705009 105.135361,116.204041 105.926598,116.703072 
	C107.866234,114.411369 109.805870,112.119675 112.508659,109.908005 
	C113.019028,109.940010 113.529388,109.972015 113.859604,110.856895 
	C113.194427,113.951447 113.750641,116.749313 117.545059,115.966316 
	C121.930161,115.061440 126.657387,114.116852 128.509811,108.836311 
	C129.144943,107.025826 130.526779,105.477287 132.162796,103.727768 
	C132.828552,103.893051 133.494308,104.058342 133.965744,104.901115 
M136.934479,145.011383 
	C136.798950,146.278564 136.091080,148.182358 136.646149,148.681412 
	C137.828796,149.744675 139.673645,150.542191 141.233704,150.519623 
	C142.034622,150.508041 143.557587,148.434723 143.469131,147.403351 
	C142.919083,140.989426 146.045731,134.901840 151.489716,131.588715 
	C152.612381,130.905472 153.237167,128.835052 153.414505,127.324509 
	C153.599075,125.752289 152.964081,124.083855 152.479782,121.236618 
	C150.435745,123.036049 148.735275,124.292198 147.340500,125.826286 
	C145.841705,127.474792 144.629944,129.384262 142.651077,131.086975 
	C142.222687,131.031509 141.794281,130.976044 141.293411,130.174683 
	C140.467560,125.744118 137.169266,126.253944 134.332047,127.167419 
	C129.020126,128.877625 125.338539,132.449188 123.348785,138.360580 
	C122.572754,138.160339 121.796722,137.960098 121.020691,137.759857 
	C121.736008,136.277618 122.508591,134.819916 123.155983,133.308578 
	C125.164085,128.620651 123.992935,126.747566 118.986313,126.696716 
	C115.996407,126.666344 112.834633,126.178658 110.060791,126.976570 
	C107.083916,127.832870 103.594986,129.312881 101.878548,131.655640 
	C98.096359,136.817886 95.266228,142.681519 92.119621,148.299271 
	C91.825218,148.824890 91.828949,149.747543 92.100639,150.277512 
	C92.275368,150.618347 93.372574,150.877304 93.747124,150.654099 
	C95.067696,149.867157 96.621330,149.096817 97.418846,147.881866 
	C99.276459,145.051956 100.607254,141.879791 102.415337,139.012680 
	C103.906509,136.648102 105.776474,134.522369 107.478577,132.290802 
	C107.908257,132.610596 108.337944,132.930374 108.767624,133.250168 
	C106.449097,137.996765 104.093933,142.726166 101.850891,147.508163 
	C101.507912,148.239365 101.682999,149.213577 101.618469,150.075394 
	C102.612770,150.001129 103.832024,150.258652 104.547699,149.773422 
	C105.574028,149.077576 106.383995,147.926498 107.020584,146.817261 
	C108.987801,143.389389 110.671921,139.789352 112.787903,136.460815 
	C113.795525,134.875793 115.532013,133.754120 116.938332,132.422546 
	C117.244606,132.764450 117.550873,133.106354 117.857140,133.448273 
	C114.975929,138.846771 112.094711,144.245270 108.821503,150.378250 
	C112.342415,150.435242 114.656006,150.620026 116.046242,147.346786 
	C116.888779,145.363022 118.653870,143.771118 120.185951,142.680130 
	C119.951378,144.550720 119.716805,146.421310 119.411270,148.857788 
	C121.354149,152.282959 124.680443,150.991730 128.384857,149.856628 
	C128.661911,149.718353 128.874420,149.513199 129.680389,149.055862 
	C131.338486,147.300751 132.996597,145.545654 135.906174,144.027786 
	C136.323471,144.103333 136.740784,144.178879 136.934479,145.011383 
M43.111210,118.755135 
	C43.430889,119.421738 43.750568,120.088348 44.990227,120.885765 
	C55.873051,120.798729 66.755875,120.711693 76.977821,121.221596 
	C72.604141,129.313080 68.230469,137.404556 63.534023,146.093170 
	C70.533134,146.093170 76.533920,146.344131 82.493401,145.957886 
	C84.596443,145.821564 87.451340,144.675995 88.497406,143.048981 
	C92.764648,136.411896 96.464447,129.409973 100.893204,121.629059 
	C97.603065,121.629059 95.630150,121.711563 93.666306,121.613228 
	C88.279938,121.343468 82.897362,120.997726 77.028877,120.350891 
	C76.984886,120.160301 76.940895,119.969719 77.232056,119.666199 
	C77.413506,119.438171 77.397095,119.225426 77.678391,118.456284 
	C83.251640,108.227135 88.824883,97.997978 94.854462,86.931282 
	C84.071167,86.931282 74.504234,87.011826 64.941650,86.844604 
	C63.504082,86.819458 62.086769,85.635994 61.158669,84.467476 
	C65.153198,76.782059 69.147720,69.096642 73.693100,61.027790 
	C74.104050,60.010628 74.514999,58.993462 75.479240,57.587559 
	C76.696381,55.179234 77.913528,52.770908 79.711868,49.966042 
	C80.616325,48.287594 81.616554,46.648560 82.338333,44.894920 
	C82.470642,44.573448 81.471252,43.786179 80.086403,42.968121 
	C68.727928,43.118969 57.369450,43.269817 45.369854,43.323322 
	C44.636936,43.747574 43.904015,44.171825 42.518742,44.612823 
	C40.394066,46.383652 37.555519,47.746346 36.269100,49.996422 
	C30.886242,59.411568 25.968971,69.092903 20.317051,79.104927 
	C19.156815,81.244286 17.996576,83.383636 16.383396,86.358170 
	C24.277567,86.358170 31.351357,86.358170 38.425148,86.358170 
	C45.589931,86.358170 52.754715,86.358170 60.856445,86.358170 
	C54.694286,97.850220 49.157291,108.176376 43.111210,118.755135 
M125.560791,58.555134 
	C114.832329,56.958633 107.453773,60.933449 103.810966,71.416084 
	C103.053749,73.595055 101.713722,75.571831 100.638710,77.639923 
	C99.251068,80.309494 97.859818,82.977188 96.132050,86.294861 
	C104.881882,86.294861 112.577591,86.796768 120.149460,86.047356 
	C123.169907,85.748405 126.925117,83.336655 128.592468,80.754509 
	C132.974213,73.968742 136.392838,66.561058 140.643677,58.556503 
	C135.388901,58.556503 130.961639,58.556503 125.560791,58.555134 
M157.681808,136.323914 
	C152.289413,136.940582 147.450241,141.460205 147.085953,146.842728 
	C147.002441,148.076813 148.804092,150.526443 149.793686,150.555984 
	C153.975616,150.680786 158.178528,150.102890 161.100586,149.879349 
	C161.811386,146.708801 162.037720,144.097336 162.998795,141.792252 
	C164.399582,138.432541 166.641937,135.406799 167.876862,132.003326 
	C168.361725,130.667053 167.614685,127.801353 166.534195,127.174850 
	C162.719009,124.962700 156.254959,128.710358 155.193924,133.719711 
	C157.202072,133.416656 159.055984,133.136887 161.425095,132.779373 
	C161.110168,133.860992 161.089981,134.761215 160.633591,135.270691 
	C160.150406,135.810074 159.252304,135.977783 157.681808,136.323914 
M153.900986,93.124954 
	C145.843002,97.072075 144.940765,105.810539 141.153793,112.583359 
	C140.921539,112.998726 143.302155,115.844521 144.638794,115.990852 
	C149.141098,116.483772 152.703110,114.236313 155.052246,110.445000 
	C157.065704,107.195389 158.947510,103.826782 160.485168,100.333679 
	C161.422775,98.203712 161.598785,95.738487 162.116882,93.423836 
	C159.618332,93.227180 157.119766,93.030525 153.900986,93.124954 
M163.073441,46.722004 
	C163.498993,45.611507 163.924545,44.501007 164.406097,43.244370 
	C149.472031,42.061192 145.403427,44.868137 142.543137,57.661617 
	C152.340927,60.355278 159.311325,57.266445 163.073441,46.722004 
z"/>
<path fill="#11191C" opacity="1.000000" stroke="none" 
	d="
M46.010975,43.420666 
	C57.369450,43.269817 68.727928,43.118969 80.523941,43.466480 
	C80.351212,46.097420 79.740944,48.230000 79.130676,50.362583 
	C77.913528,52.770908 76.696381,55.179234 74.838272,57.862465 
	C73.845612,59.228653 73.493927,60.319939 73.142242,61.411224 
	C69.147720,69.096642 65.153198,76.782059 60.463005,84.727921 
	C46.461742,84.988373 33.156147,84.988373 19.802452,84.988373 
	C20.228346,82.496269 20.554722,80.586487 20.881100,78.676704 
	C25.968971,69.092903 30.886242,59.411568 36.269100,49.996422 
	C37.555519,47.746346 40.394066,46.383652 43.198914,44.707375 
	C44.589714,44.341507 45.300343,43.881084 46.010975,43.420666 
z"/>
<path fill="#161D20" opacity="1.000000" stroke="none" 
	d="
M20.599075,78.890816 
	C20.554722,80.586487 20.228346,82.496269 19.802452,84.988373 
	C33.156147,84.988373 46.461742,84.988373 60.213711,84.988365 
	C62.086769,85.635994 63.504082,86.819458 64.941650,86.844604 
	C74.504234,87.011826 84.071167,86.931282 94.854462,86.931282 
	C88.824883,97.997978 83.251640,108.227135 77.278519,118.810272 
	C76.712669,119.374405 76.718758,119.579361 76.896904,119.779137 
	C76.940895,119.969719 76.984886,120.160301 77.306320,120.510612 
	C77.583755,120.670334 77.638695,120.624664 77.638695,120.624664 
	C66.755875,120.711693 55.873051,120.798729 44.498295,120.437210 
	C43.877674,119.493279 43.748985,118.997910 43.620300,118.502533 
	C49.157291,108.176376 54.694286,97.850220 60.856445,86.358170 
	C52.754715,86.358170 45.589931,86.358170 38.425148,86.358170 
	C31.351357,86.358170 24.277567,86.358170 16.383396,86.358170 
	C17.996576,83.383636 19.156815,81.244286 20.599075,78.890816 
z"/>
<path fill="#151C1F" opacity="1.000000" stroke="none" 
	d="
M126.047592,58.555817 
	C130.961639,58.556503 135.388901,58.556503 140.643677,58.556503 
	C136.392838,66.561058 132.974213,73.968742 128.592468,80.754509 
	C126.925117,83.336655 123.169907,85.748405 120.149460,86.047356 
	C112.577591,86.796768 104.881882,86.294861 96.132050,86.294861 
	C97.859818,82.977188 99.251068,80.309494 100.638710,77.639923 
	C101.713722,75.571831 103.053749,73.595055 103.810966,71.416084 
	C107.453773,60.933449 114.832329,56.958633 126.047592,58.555817 
z"/>
<path fill="#192023" opacity="1.000000" stroke="none" 
	d="
M77.548523,120.676193 
	C82.897362,120.997726 88.279938,121.343468 93.666306,121.613228 
	C95.630150,121.711563 97.603065,121.629059 100.893204,121.629059 
	C96.464447,129.409973 92.764648,136.411896 88.497406,143.048981 
	C87.451340,144.675995 84.596443,145.821564 82.493401,145.957886 
	C76.533920,146.344131 70.533134,146.093170 63.534023,146.093170 
	C68.230469,137.404556 72.604141,129.313080 77.308258,120.923126 
	C77.638695,120.624664 77.583755,120.670334 77.548523,120.676193 
z"/>
<path fill="#AC3856" opacity="1.000000" stroke="none" 
	d="
M120.004486,142.003159 
	C118.653870,143.771118 116.888779,145.363022 116.046242,147.346786 
	C114.656006,150.620026 112.342415,150.435242 108.821503,150.378250 
	C112.094711,144.245270 114.975929,138.846771 117.857140,133.448273 
	C117.550873,133.106354 117.244606,132.764450 116.938332,132.422546 
	C115.532013,133.754120 113.795525,134.875793 112.787903,136.460815 
	C110.671921,139.789352 108.987801,143.389389 107.020584,146.817261 
	C106.383995,147.926498 105.574028,149.077576 104.547699,149.773422 
	C103.832024,150.258652 102.612770,150.001129 101.618469,150.075394 
	C101.682999,149.213577 101.507912,148.239365 101.850891,147.508163 
	C104.093933,142.726166 106.449097,137.996765 108.767624,133.250168 
	C108.337944,132.930374 107.908257,132.610596 107.478577,132.290802 
	C105.776474,134.522369 103.906509,136.648102 102.415337,139.012680 
	C100.607254,141.879791 99.276459,145.051956 97.418846,147.881866 
	C96.621330,149.096817 95.067696,149.867157 93.747124,150.654099 
	C93.372574,150.877304 92.275368,150.618347 92.100639,150.277512 
	C91.828949,149.747543 91.825218,148.824890 92.119621,148.299271 
	C95.266228,142.681519 98.096359,136.817886 101.878548,131.655640 
	C103.594986,129.312881 107.083916,127.832870 110.060791,126.976570 
	C112.834633,126.178658 115.996407,126.666344 118.986313,126.696716 
	C123.992935,126.747566 125.164085,128.620651 123.155983,133.308578 
	C122.508591,134.819916 121.736008,136.277618 121.020691,137.759857 
	C121.796722,137.960098 122.572754,138.160339 123.677711,138.597641 
	C122.672592,139.890854 121.338539,140.947006 120.004486,142.003159 
z"/>
<path fill="#AD3C5A" opacity="1.000000" stroke="none" 
	d="
M111.745506,109.827972 
	C109.805870,112.119675 107.866234,114.411369 105.926598,116.703072 
	C105.135361,116.204041 104.344124,115.705009 103.552887,115.205978 
	C106.280380,109.684654 109.007874,104.163330 111.735367,98.642006 
	C111.582344,98.357880 111.429321,98.073761 111.276299,97.789635 
	C110.193092,98.450943 108.684624,98.854683 108.100868,99.818497 
	C105.677002,103.820381 103.285675,107.880112 101.366180,112.136757 
	C99.938492,115.302750 97.984276,116.398453 94.211411,115.495552 
	C97.177856,109.763191 100.059601,104.194519 102.941345,98.625839 
	C102.620178,98.287285 102.299011,97.948738 101.977844,97.610184 
	C100.804367,98.657730 99.294479,99.502998 98.520279,100.790619 
	C96.165649,104.706795 94.295288,108.923279 91.818268,112.752365 
	C90.785332,114.349121 88.696594,115.262878 87.087929,116.487198 
	C86.644814,116.044907 86.201691,115.602615 85.758568,115.160324 
	C89.379349,108.707245 92.692909,102.048386 96.797920,95.919632 
	C98.123604,93.940399 101.417908,92.776382 104.011353,92.277573 
	C107.222946,91.659874 110.642311,92.109688 113.971832,92.121414 
	C117.348412,92.133308 118.964203,93.642761 117.845352,97.800720 
	C115.594612,102.243622 113.670059,106.035797 111.745506,109.827972 
z"/>
<path fill="#AB3756" opacity="1.000000" stroke="none" 
	d="
M158.108612,136.315872 
	C159.252304,135.977783 160.150406,135.810074 160.633591,135.270691 
	C161.089981,134.761215 161.110168,133.860992 161.425095,132.779373 
	C159.055984,133.136887 157.202072,133.416656 155.193924,133.719711 
	C156.254959,128.710358 162.719009,124.962700 166.534195,127.174850 
	C167.614685,127.801353 168.361725,130.667053 167.876862,132.003326 
	C166.641937,135.406799 164.399582,138.432541 162.998795,141.792252 
	C162.037720,144.097336 161.811386,146.708801 161.100586,149.879349 
	C158.178528,150.102890 153.975616,150.680786 149.793686,150.555984 
	C148.804092,150.526443 147.002441,148.076813 147.085953,146.842728 
	C147.450241,141.460205 152.289413,136.940582 158.108612,136.315872 
z"/>
<path fill="#A83553" opacity="1.000000" stroke="none" 
	d="
M154.261108,92.979408 
	C157.119766,93.030525 159.618332,93.227180 162.116882,93.423843 
	C161.598785,95.738487 161.422775,98.203712 160.485168,100.333679 
	C158.947510,103.826782 157.065704,107.195389 155.052246,110.445000 
	C152.703110,114.236313 149.141098,116.483772 144.638794,115.990852 
	C143.302155,115.844521 140.921539,112.998726 141.153793,112.583359 
	C144.940765,105.810539 145.843002,97.072075 154.261108,92.979408 
M150.931274,102.441681 
	C149.610077,105.128952 148.288864,107.816223 146.608368,111.234276 
	C151.478119,109.512703 155.950562,101.676094 155.293610,96.287796 
	C153.649734,98.543625 152.464508,100.170074 150.931274,102.441681 
z"/>
<path fill="#AA3453" opacity="1.000000" stroke="none" 
	d="
M120.095215,142.341644 
	C121.338539,140.947006 122.672592,139.890854 124.017693,138.464310 
	C125.338539,132.449188 129.020126,128.877625 134.332047,127.167419 
	C137.169266,126.253944 140.467560,125.744118 141.128860,130.856293 
	C138.861099,135.622116 136.757904,139.706329 134.654694,143.790558 
	C132.996597,145.545654 131.338486,147.300751 129.089691,149.083267 
	C128.316864,149.399506 128.134735,149.688339 127.952621,149.977188 
	C124.680443,150.991730 121.354149,152.282959 119.411270,148.857788 
	C119.716805,146.421310 119.951378,144.550720 120.095215,142.341644 
M127.749832,141.201004 
	C126.979820,142.709641 126.209808,144.218262 125.439804,145.726898 
	C126.131142,146.097183 126.822479,146.467468 127.513817,146.837753 
	C130.201080,142.165604 132.888336,137.493439 135.575607,132.821274 
	C134.862915,132.368362 134.150238,131.915451 133.437546,131.462540 
	C131.653183,134.492630 129.868820,137.522736 127.749832,141.201004 
z"/>
<path fill="#1E2426" opacity="1.000000" stroke="none" 
	d="
M162.896500,47.038353 
	C159.311325,57.266445 152.340927,60.355278 142.543137,57.661617 
	C145.403427,44.868137 149.472031,42.061192 164.406097,43.244370 
	C163.924545,44.501007 163.498993,45.611507 162.896500,47.038353 
z"/>
<path fill="#AA3151" opacity="1.000000" stroke="none" 
	d="
M120.861488,97.952087 
	C124.152069,93.806801 128.083115,91.193886 134.064285,92.965027 
	C134.572800,93.609154 134.790421,93.744011 135.091522,93.744247 
	C135.152847,94.552040 135.214157,95.359833 135.020996,96.843735 
	C133.700180,99.616257 132.633820,101.712662 131.567459,103.809074 
	C130.526779,105.477287 129.144943,107.025826 128.509811,108.836311 
	C126.657387,114.116852 121.930161,115.061440 117.545059,115.966316 
	C113.750641,116.749313 113.194427,113.951447 114.252586,110.279922 
	C116.717545,105.786003 118.789513,101.869041 120.861488,97.952087 
M126.568184,98.045479 
	C124.069489,102.241577 121.570786,106.437683 119.099503,110.587746 
	C120.081642,111.166908 120.592499,111.480476 120.599045,111.470291 
	C123.439064,107.046486 126.244781,102.600670 129.051056,98.155205 
	C128.407928,97.961174 127.764809,97.767143 126.568184,98.045479 
z"/>
<path fill="#AD3B58" opacity="1.000000" stroke="none" 
	d="
M143.292938,131.179855 
	C144.629944,129.384262 145.841705,127.474792 147.340500,125.826286 
	C148.735275,124.292198 150.435745,123.036049 152.479782,121.236618 
	C152.964081,124.083855 153.599075,125.752289 153.414505,127.324509 
	C153.237167,128.835052 152.612381,130.905472 151.489716,131.588715 
	C146.045731,134.901840 142.919083,140.989426 143.469131,147.403351 
	C143.557587,148.434723 142.034622,150.508041 141.233704,150.519623 
	C139.673645,150.542191 137.828796,149.744675 136.646149,148.681412 
	C136.091080,148.182358 136.798950,146.278564 137.287231,144.474014 
	C139.524307,139.684387 141.408630,135.432129 143.292938,131.179855 
z"/>
<path fill="#AA3250" opacity="1.000000" stroke="none" 
	d="
M137.330383,98.282288 
	C139.987061,94.483032 140.741379,88.973846 146.452759,87.632179 
	C147.775909,92.422440 147.370667,95.324417 142.967651,98.790947 
	C139.445053,101.564339 138.752762,107.921600 136.774536,112.675850 
	C136.310120,113.791985 135.965973,115.452728 135.132614,115.789627 
	C134.191727,116.169975 132.492996,115.660126 131.627197,114.935776 
	C130.911194,114.336761 130.414581,112.684456 130.717896,111.810051 
	C131.547226,109.419212 132.850281,107.192703 134.338623,104.346313 
	C135.584457,101.955109 136.457428,100.118698 137.330383,98.282288 
z"/>
<path fill="#E7CDD4" opacity="1.000000" stroke="none" 
	d="
M120.507874,97.976341 
	C118.789513,101.869041 116.717545,105.786003 114.342667,109.853493 
	C113.529388,109.972015 113.019028,109.940010 112.127083,109.867989 
	C113.670059,106.035797 115.594612,102.243622 117.774918,98.226044 
	C118.738541,98.000618 119.446396,98.000610 120.507874,97.976341 
z"/>
<path fill="#EAD5DB" opacity="1.000000" stroke="none" 
	d="
M142.972015,131.133423 
	C141.408630,135.432129 139.524307,139.684387 137.399033,144.095535 
	C136.740784,144.178879 136.323471,144.103333 135.280426,143.909164 
	C136.757904,139.706329 138.861099,135.622116 141.165100,131.229248 
	C141.794281,130.976044 142.222687,131.031509 142.972015,131.133423 
z"/>
<path fill="#E7CFD5" opacity="1.000000" stroke="none" 
	d="
M137.053879,98.139999 
	C136.457428,100.118698 135.584457,101.955109 134.435791,104.007576 
	C133.494308,104.058342 132.828552,103.893051 131.865128,103.768417 
	C132.633820,101.712662 133.700180,99.616257 134.996857,97.249863 
	C135.743896,97.319145 136.260635,97.658432 137.053879,98.139999 
z"/>
<path fill="#161D20" opacity="1.000000" stroke="none" 
	d="
M79.421272,50.164314 
	C79.740944,48.230000 80.351212,46.097420 80.977867,43.589378 
	C81.471252,43.786179 82.470642,44.573448 82.338333,44.894920 
	C81.616554,46.648560 80.616325,48.287594 79.421272,50.164314 
z"/>
<path fill="#161D20" opacity="1.000000" stroke="none" 
	d="
M73.417671,61.219505 
	C73.493927,60.319939 73.845612,59.228653 74.561615,58.056831 
	C74.514999,58.993462 74.104050,60.010628 73.417671,61.219505 
z"/>
<path fill="#4B4F50" opacity="1.000000" stroke="none" 
	d="
M43.365753,118.628830 
	C43.748985,118.997910 43.877674,119.493279 44.038307,120.371803 
	C43.750568,120.088348 43.430889,119.421738 43.365753,118.628830 
z"/>
<path fill="#161D20" opacity="1.000000" stroke="none" 
	d="
M45.690414,43.371994 
	C45.300343,43.881084 44.589714,44.341507 43.525089,44.699001 
	C43.904015,44.171825 44.636936,43.747574 45.690414,43.371994 
z"/>
<path fill="#4B4F50" opacity="1.000000" stroke="none" 
	d="
M77.064484,119.722672 
	C76.718758,119.579361 76.712669,119.374405 77.030731,119.096115 
	C77.397095,119.225426 77.413506,119.438171 77.064484,119.722672 
z"/>
<path fill="#E7CFD5" opacity="1.000000" stroke="none" 
	d="
M135.050568,93.557083 
	C134.790421,93.744011 134.572800,93.609154 134.422333,93.139412 
	C134.680069,92.980614 134.881271,93.124214 135.050568,93.557083 
z"/>
<path fill="#EAD5DB" opacity="1.000000" stroke="none" 
	d="
M128.168732,149.916901 
	C128.134735,149.688339 128.316864,149.399506 128.760696,149.175934 
	C128.874420,149.513199 128.661911,149.718353 128.168732,149.916901 
z"/>
<path fill="#E2AFBC" opacity="1.000000" stroke="none" 
	d="
M151.105286,102.119110 
	C152.464508,100.170074 153.649734,98.543625 155.293610,96.287796 
	C155.950562,101.676094 151.478119,109.512703 146.608368,111.234276 
	C148.288864,107.816223 149.610077,105.128952 151.105286,102.119110 
z"/>
<path fill="#E6B9C3" opacity="1.000000" stroke="none" 
	d="
M127.917145,140.876923 
	C129.868820,137.522736 131.653183,134.492630 133.437546,131.462540 
	C134.150238,131.915451 134.862915,132.368362 135.575607,132.821274 
	C132.888336,137.493439 130.201080,142.165604 127.513817,146.837753 
	C126.822479,146.467468 126.131142,146.097183 125.439804,145.726898 
	C126.209808,144.218262 126.979820,142.709641 127.917145,140.876923 
z"/>
<path fill="#E5B7C1" opacity="1.000000" stroke="none" 
	d="
M126.844933,97.809296 
	C127.764809,97.767143 128.407928,97.961174 129.051056,98.155205 
	C126.244781,102.600670 123.439064,107.046486 120.599045,111.470291 
	C120.592499,111.480476 120.081642,111.166908 119.099503,110.587746 
	C121.570786,106.437683 124.069489,102.241577 126.844933,97.809296 
z"/>
</svg>