<svg xmlns="http://www.w3.org/2000/svg" width="192" height="192">
  <path style="fill:#fefdfd; stroke:none;" d="M0 0L0 192L192 192L192 0L0 0z"/>
  <path style="fill:#a8a3a5; stroke:none;" d="M37 32L37 33L82 34L70 32L37 32M163 32L163 33L178 33L163 32M35 33L36 34L35 33z"/>
  <path style="fill:#5c5d5f; stroke:none;" d="M36 33L37 34L36 33z"/>
  <path style="fill:#12191c; stroke:none;" d="M4 85L39 85L53.6096 84.3966L61.7531 71L81 33C67.7434 33 48.501 29.4562 36 33.9699C23.6839 38.4169 19.3634 54.5123 13.6914 65C10.1967 71.4617 5.80938 77.8227 4 85z"/>
  <path style="fill:#a8a3a5; stroke:none;" d="M161 33L162 34L161 33z"/>
  <path style="fill:#12191c; stroke:none;" d="M151 51C166.346 51 171.726 47.5593 178 33C162.452 33 157.322 36.2576 151 51z"/>
  <path style="fill:#a8a3a5; stroke:none;" d="M33 34L34 35L33 34z"/>
  <path style="fill:#5c5d5f; stroke:none;" d="M34 34L35 35L34 34z"/>
  <path style="fill:#a8a3a5; stroke:none;" d="M159 34L160 35L159 34z"/>
  <path style="fill:#5c5d5f; stroke:none;" d="M160 34L161 35L160 34z"/>
  <path style="fill:#a8a3a5; stroke:none;" d="M177 34L178 35L177 34z"/>
  <path style="fill:#5c5d5f; stroke:none;" d="M32 35L33 36L32 35M80 35L81 36L80 35M159 35L160 36L159 35z"/>
  <path style="fill:#a8a3a5; stroke:none;" d="M30 36L31 37L30 36z"/>
  <path style="fill:#5c5d5f; stroke:none;" d="M158 36L159 37L158 36z"/>
  <path style="fill:#a8a3a5; stroke:none;" d="M176 36L177 37L176 36z"/>
  <path style="fill:#5c5d5f; stroke:none;" d="M29 37L30 38L29 37M79 37L80 38L79 37z"/>
  <path style="fill:#a8a3a5; stroke:none;" d="M157 37L158 38L157 37z"/>
  <path style="fill:#5c5d5f; stroke:none;" d="M28 38L29 39L28 38M157 38L158 39L157 38z"/>
  <path style="fill:#a8a3a5; stroke:none;" d="M175 38L176 39L175 38z"/>
  <path style="fill:#5c5d5f; stroke:none;" d="M27 39L28 40L27 39z"/>
  <path style="fill:#a8a3a5; stroke:none;" d="M78 39L79 40L78 39M156 39L157 40L156 39z"/>
  <path style="fill:#5c5d5f; stroke:none;" d="M174 39L175 40L174 39z"/>
  <path style="fill:#a8a3a5; stroke:none;" d="M26 40L27 41L26 40z"/>
  <path style="fill:#5c5d5f; stroke:none;" d="M77 40L78 41L77 40M156 40L157 41L156 40z"/>
  <path style="fill:#a8a3a5; stroke:none;" d="M174 40L175 41L174 40M25 41L26 42L25 41M77 41L78 42L77 41M155 41L156 42L155 41z"/>
  <path style="fill:#5c5d5f; stroke:none;" d="M173 41L174 42L173 41M25 42L26 43L25 42M76 42L77 43L76 42z"/>
  <path style="fill:#a8a3a5; stroke:none;" d="M173 42L174 43L173 42M24 43L25 44L24 43M76 43L77 44L76 43M154 43L155 44L154 43M172 43L173 44L172 43z"/>
  <path style="fill:#5c5d5f; stroke:none;" d="M24 44L25 45L24 44M75 44L76 45L75 44M154 44L155 45L154 44z"/>
  <path style="fill:#a8a3a5; stroke:none;" d="M23 45L24 46L23 45M75 45L76 46L75 45M153 45L154 46L153 45M171 45L172 46L171 45z"/>
  <path style="fill:#5c5d5f; stroke:none;" d="M74 46L75 47L74 46M170 46L171 47L170 46M22 47L23 48L22 47z"/>
  <path style="fill:#a8a3a5; stroke:none;" d="M74 47L75 48L74 47M152 47L153 48L152 47M170 47L171 48L170 47z"/>
  <path style="fill:#5c5d5f; stroke:none;" d="M73 48L74 49L73 48M169 48L170 49L169 48M21 49L22 50L21 49M151 49L152 50L151 49z"/>
  <path style="fill:#a8a3a5; stroke:none;" d="M168 49L169 50L168 49z"/>
  <path style="fill:#5c5d5f; stroke:none;" d="M72 50L73 51L72 50M166 50L167 51L166 50z"/>
  <path style="fill:#a8a3a5; stroke:none;" d="M167 50L168 51L167 50z"/>
  <path style="fill:#5c5d5f; stroke:none;" d="M20 51L21 52L20 51z"/>
  <path style="fill:#a8a3a5; stroke:none;" d="M119 51L119 52L150 53C145.392 47.7264 125.916 51 119 51M19 52L20 53L19 52M71 52L72 53L71 52M117 52L118 53L117 52z"/>
  <path style="fill:#5c5d5f; stroke:none;" d="M118 52L119 53L118 52z"/>
  <path style="fill:#12191c; stroke:none;" d="M98 85C106.903 85 120.765 87.6156 128.961 83.9105C139.173 79.2939 144.501 61.4603 149 52C139.876 52 126.525 49.5404 118.001 53.0093C108.174 57.0084 100.765 75.4011 98 85z"/>
  <path style="fill:#5c5d5f; stroke:none;" d="M19 53L20 54L19 53z"/>
  <path style="fill:#a8a3a5; stroke:none;" d="M115 53L116 54L115 53z"/>
  <path style="fill:#5c5d5f; stroke:none;" d="M116 53L117 54L116 53M148 53L149 54L148 53z"/>
  <path style="fill:#a8a3a5; stroke:none;" d="M18 54L19 55L18 54M70 54L71 55L70 54z"/>
  <path style="fill:#5c5d5f; stroke:none;" d="M114 54L115 55L114 54M147 54L148 55L147 54M18 55L19 56L18 55M113 55L114 56L113 55z"/>
  <path style="fill:#a8a3a5; stroke:none;" d="M147 55L148 56L147 55M17 56L18 57L17 56M69 56L70 57L69 56z"/>
  <path style="fill:#5c5d5f; stroke:none;" d="M112 56L113 57L112 56M17 57L18 58L17 57M111 57L112 58L111 57z"/>
  <path style="fill:#a8a3a5; stroke:none;" d="M146 57L147 58L146 57M16 58L17 59L16 58M68 58L69 59L68 58M110 58L111 59L110 58z"/>
  <path style="fill:#5c5d5f; stroke:none;" d="M16 59L17 60L16 59M110 59L111 60L110 59z"/>
  <path style="fill:#a8a3a5; stroke:none;" d="M145 59L146 60L145 59M15 60L16 61L15 60M67 60L68 61L67 60M109 60L110 61L109 60z"/>
  <path style="fill:#5c5d5f; stroke:none;" d="M15 61L16 62L15 61M109 61L110 62L109 61z"/>
  <path style="fill:#a8a3a5; stroke:none;" d="M144 61L145 62L144 61M14 62L15 63L14 62M66 62L67 63L66 62M108 62L109 63L108 62z"/>
  <path style="fill:#5c5d5f; stroke:none;" d="M14 63L15 64L14 63M65 63L66 64L65 63z"/>
  <path style="fill:#a8a3a5; stroke:none;" d="M143 63L144 64L143 63M13 64L14 65L13 64M65 64L66 65L65 64M107 64L108 65L107 64z"/>
  <path style="fill:#5c5d5f; stroke:none;" d="M13 65L14 66L13 65M64 65L65 66L64 65z"/>
  <path style="fill:#a8a3a5; stroke:none;" d="M142 65L143 66L142 65M12 66L13 67L12 66M64 66L65 67L64 66z"/>
  <path style="fill:#5c5d5f; stroke:none;" d="M106 66L107 67L106 66M12 67L13 68L12 67M63 67L64 68L63 67z"/>
  <path style="fill:#a8a3a5; stroke:none;" d="M141 67L142 68L141 67M11 68L12 69L11 68M63 68L64 69L63 68z"/>
  <path style="fill:#5c5d5f; stroke:none;" d="M105 68L106 69L105 68z"/>
  <path style="fill:#a8a3a5; stroke:none;" d="M10.3333 69.6667L10.6667 70.3333L10.3333 69.6667z"/>
  <path style="fill:#5c5d5f; stroke:none;" d="M62 69L63 70L62 69z"/>
  <path style="fill:#a8a3a5; stroke:none;" d="M140 69L141 70L140 69M62 70L63 71L62 70z"/>
  <path style="fill:#5c5d5f; stroke:none;" d="M104 70L105 71L104 70z"/>
  <path style="fill:#a8a3a5; stroke:none;" d="M9 71L10 72L9 71z"/>
  <path style="fill:#5c5d5f; stroke:none;" d="M61 71L62 72L61 71z"/>
  <path style="fill:#a8a3a5; stroke:none;" d="M139 71L140 72L139 71z"/>
  <path style="fill:#5c5d5f; stroke:none;" d="M9 72L10 73L9 72M103 72L104 73L103 72M138 72L139 73L138 72z"/>
  <path style="fill:#a8a3a5; stroke:none;" d="M8 73L9 74L8 73M60 73L61 74L60 73M138 73L139 74L138 73z"/>
  <path style="fill:#5c5d5f; stroke:none;" d="M8 74L9 75L8 74M102 74L103 75L102 74M137 74L138 75L137 74z"/>
  <path style="fill:#a8a3a5; stroke:none;" d="M59 75L60 76L59 75M137 75L138 76L137 75z"/>
  <path style="fill:#5c5d5f; stroke:none;" d="M7 76L8 77L7 76M101 76L102 77L101 76M136 76L137 77L136 76z"/>
  <path style="fill:#a8a3a5; stroke:none;" d="M58 77L59 78L58 77M136 77L137 78L136 77z"/>
  <path style="fill:#5c5d5f; stroke:none;" d="M6 78L7 79L6 78M100 78L101 79L100 78M135 78L136 79L135 78z"/>
  <path style="fill:#a8a3a5; stroke:none;" d="M5 79L6 80L5 79M57 79L58 80L57 79M99 79L100 80L99 79z"/>
  <path style="fill:#5c5d5f; stroke:none;" d="M134 79L135 80L134 79M99 80L100 81L99 80M133 80L134 81L133 80z"/>
  <path style="fill:#a8a3a5; stroke:none;" d="M4 81L5 82L4 81z"/>
  <path style="fill:#5c5d5f; stroke:none;" d="M56 81L57 82L56 81z"/>
  <path style="fill:#a8a3a5; stroke:none;" d="M98 81L99 82L98 81M133 81L134 82L133 81z"/>
  <path style="fill:#5c5d5f; stroke:none;" d="M4 82L5 83L4 82M98 82L99 83L98 82M131 82L132 83L131 82z"/>
  <path style="fill:#a8a3a5; stroke:none;" d="M3 83L4 84L3 83M55 83L56 84L55 83M97 83L98 84L97 83M130 83L131 84L130 83z"/>
  <path style="fill:#5c5d5f; stroke:none;" d="M3 84L4 85L3 84M97 84L98 85L97 84z"/>
  <path style="fill:#a8a3a5; stroke:none;" d="M128 84L129 85L128 84M3 85L3 86L56 86L39 85L3 85z"/>
  <path style="fill:#5c5d5f; stroke:none;" d="M54 85L55 86L54 85z"/>
  <path style="fill:#a8a3a5; stroke:none;" d="M97 85L97 86L126 86L97 85z"/>
  <path style="fill:#5c5d5f; stroke:none;" d="M55 86L54 88L55 86z"/>
  <path style="fill:#12191c; stroke:none;" d="M34 127C44.2489 127 63.3571 130.747 72.6096 126.397C76.035 124.786 77.8453 119.134 79.5401 116C84.4751 106.875 91.1277 96.9513 94 87L93 86L56.213 87.1821L48.9414 98L34 127z"/>
  <path style="fill:#5c5d5f; stroke:none;" d="M57.6667 86.3333L58.3333 86.6667L57.6667 86.3333M60 86L60 87L64 87L60 86M87 86L87 87L91 87L87 86M93 86L95 88L95 86L93 86z"/>
  <path style="fill:#a8a3a5; stroke:none;" d="M153 87L154 88L153 87z"/>
  <path style="fill:#a62a4b; stroke:none;" d="M157 87C149.429 88.6113 138.336 109.214 138.361 116.941C138.371 120.034 142.7 122.518 144.696 119.396C148.024 114.19 146.492 106.887 151.525 101.144C156.878 95.0363 156.482 95.0669 157 87z"/>
  <path style="fill:#a8a3a5; stroke:none;" d="M157.333 87.6667L157.667 88.3333L157.333 87.6667M53 88L54 89L53 88z"/>
  <path style="fill:#5c5d5f; stroke:none;" d="M53 89L54 90L53 89M93 89L94 90L93 89z"/>
  <path style="fill:#a8a3a5; stroke:none;" d="M151 89L152 90L151 89M52 90L53 91L52 90M156 90L157 91L156 90z"/>
  <path style="fill:#5c5d5f; stroke:none;" d="M52 91L53 92L52 91M92 91L93 92L92 91z"/>
  <path style="fill:#a8a3a5; stroke:none;" d="M150 91L151 92L150 91M51 92L52 93L51 92M104 92L104 93L121 93L104 92M135 92L135 93L141 93L135 92M156 92L157 93L156 92M167 92L167 93L174 93L167 92z"/>
  <path style="fill:#5c5d5f; stroke:none;" d="M51 93L52 94L51 93M91 93L92 94L91 93z"/>
  <path style="fill:#a8a3a5; stroke:none;" d="M101.667 93.3333L102.333 93.6667L101.667 93.3333z"/>
  <path style="fill:#a62a4b; stroke:none;" d="M85 121C96.4599 119.693 96.1143 102.721 106 98L96 121C107.237 118.624 105.907 99.484 117 99L107 121C112.966 119.738 126.496 100.654 121.958 94.6034C119.94 91.9131 113.906 92.9953 111 93C95.3262 93.0252 90.3424 108.168 85 121z"/>
  <path style="fill:#a8a3a5; stroke:none;" d="M122 93L123 94L122 93M133 93L134 94L133 93z"/>
  <path style="fill:#a62a4b; stroke:none;" d="M134.001 93.6528C126.799 95.9086 121.085 107.173 118.985 113.999C117.255 119.624 122.13 121.848 126.999 120.346C135.337 117.775 150.95 88.3434 134.001 93.6528z"/>
  <path style="fill:#a8a3a5; stroke:none;" d="M142 93L143 94L142 93M149 93L150 94L149 93M158.333 93.6667L158.667 94.3333L158.333 93.6667M165 93L166 94L165 93z"/>
  <path style="fill:#a62a4b; stroke:none;" d="M166.004 93.6528C157.788 96.2449 142.426 125.394 158.999 120.196C167.651 117.482 182.898 88.3229 166.004 93.6528z"/>
  <path style="fill:#5c5d5f; stroke:none;" d="M174 93L175 94L174 93z"/>
  <path style="fill:#a8a3a5; stroke:none;" d="M50 94L51 95L50 94M131 94L132 95L131 94M163 94L164 95L163 94M175 94L175 98L176 98L175 94z"/>
  <path style="fill:#5c5d5f; stroke:none;" d="M50 95L51 96L50 95z"/>
  <path style="fill:#a8a3a5; stroke:none;" d="M90 95L91 96L90 95M98 95L99 96L98 95M123 95L123 98L124 98L123 95M129 95L130 96L129 95M143 95L143 98L144 98L143 95M49 96L50 97L49 96z"/>
  <path style="fill:#5c5d5f; stroke:none;" d="M89 96L90 97L89 96z"/>
  <path style="fill:#a8a3a5; stroke:none;" d="M147 96L148 97L147 96M157 96L158 97L157 96M89 97L90 98L89 97z"/>
  <path style="fill:#5c5d5f; stroke:none;" d="M147 97L148 98L147 97z"/>
  <path style="fill:#a8a3a5; stroke:none;" d="M48 98L49 99L48 98z"/>
  <path style="fill:#5c5d5f; stroke:none;" d="M88 98L89 99L88 98z"/>
  <path style="fill:#a8a3a5; stroke:none;" d="M96 98L97 99L96 98M105 98L106 99L105 98M113 98L114 99L113 98M132 101L136 99L131 109L132 109L137 99L132 101M146 98L147 99L146 98M153 98L153 99L156 99L153 98z"/>
  <path style="fill:#5c5d5f; stroke:none;" d="M159 98L160 99L159 98z"/>
  <path style="fill:#a8a3a5; stroke:none;" d="M164 101L168 99L164 101M88 99L89 100L88 99M112 99L113 100L112 99M116.333 99.6667L116.667 100.333L116.333 99.6667M122.333 99.6667L122.667 100.333L122.333 99.6667M126 99L127 100L126 99z"/>
  <path style="fill:#fefdfd; stroke:none;" d="M126 115L136 99C130.438 101.89 127.677 109.177 126 115z"/>
  <path style="fill:#a8a3a5; stroke:none;" d="M142 99L143 100L142 99z"/>
  <path style="fill:#5c5d5f; stroke:none;" d="M146 99L147 100L146 99z"/>
  <path style="fill:#a8a3a5; stroke:none;" d="M158 99L159 100L158 99z"/>
  <path style="fill:#fefdfd; stroke:none;" d="M158 115L168 99C162.437 101.89 159.677 109.177 158 115z"/>
  <path style="fill:#a8a3a5; stroke:none;" d="M174 99L175 100L174 99M47 100L46 102L47 100z"/>
  <path style="fill:#5c5d5f; stroke:none;" d="M87 100L88 101L87 100z"/>
  <path style="fill:#a8a3a5; stroke:none;" d="M95 100L96 101L95 100M105.333 100.667L105.667 101.333L105.333 100.667z"/>
  <path style="fill:#5c5d5f; stroke:none;" d="M111 100L112 101L111 100z"/>
  <path style="fill:#a8a3a5; stroke:none;" d="M145 100L146 101L145 100M151 100L152 101L151 100M167.333 100.667L167.667 101.333L167.333 100.667z"/>
  <path style="fill:#5c5d5f; stroke:none;" d="M47 101L48 102L47 101z"/>
  <path style="fill:#a8a3a5; stroke:none;" d="M87 101L88 102L87 101M100 101L101 102L100 101M125 101L126 102L125 101z"/>
  <path style="fill:#5c5d5f; stroke:none;" d="M131 101L132 102L131 101z"/>
  <path style="fill:#a8a3a5; stroke:none;" d="M141 101L142 102L141 101M157 101L158 102L157 101M173 101L174 102L173 101z"/>
  <path style="fill:#5c5d5f; stroke:none;" d="M46 102L47 103L46 102M86 102L87 103L86 102z"/>
  <path style="fill:#a8a3a5; stroke:none;" d="M104.333 102.667L104.667 103.333L104.333 102.667M110 102L111 103L110 102M115 102L116 103L115 102M131 102L132 103L131 102M144 102L145 103L144 102M163 102L164 103L163 102M166.333 102.667L166.667 103.333L166.333 102.667M45 103L46 104L45 103M86 103L87 104L86 103M93 103L94 104L93 103M99 103L100 104L99 103M120 103L121 104L120 103M124 103L125 104L124 103M140 103L141 104L140 103M149 103L150 104L149 103M156 103L157 104L156 103M172 103L173 104L172 103z"/>
  <path style="fill:#5c5d5f; stroke:none;" d="M45 104L46 105L45 104M85 104L86 105L85 104z"/>
  <path style="fill:#a8a3a5; stroke:none;" d="M109 104L110 105L109 104M114 104L115 105L114 104M130 104L131 105L130 104M139 104L140 105L139 104M143 104L144 105L143 104M162 104L163 105L162 104M165 104L166 105L165 104M44 105L45 106L44 105M92 105L93 106L92 105M98 105L99 106L98 105M103 105L104 106L103 105M119 105L120 106L119 105M123 105L124 106L123 105z"/>
  <path style="fill:#5c5d5f; stroke:none;" d="M129 105L130 106L129 105z"/>
  <path style="fill:#a8a3a5; stroke:none;" d="M148 105L149 106L148 105M155 105L156 106L155 105M161.333 105.667L161.667 106.333L161.333 105.667z"/>
  <path style="fill:#5c5d5f; stroke:none;" d="M165 105L166 106L165 105z"/>
  <path style="fill:#a8a3a5; stroke:none;" d="M171 105L172 106L171 105z"/>
  <path style="fill:#5c5d5f; stroke:none;" d="M44 106L45 107L44 106z"/>
  <path style="fill:#a8a3a5; stroke:none;" d="M84 106L85 107L84 106M108 106L109 107L108 106M113 106L114 107L113 106M129 106L130 107L129 106M138 106L139 107L138 106M142 106L143 107L142 106M164.333 106.667L164.667 107.333L164.333 106.667M43 107L44 108L43 107M91 107L92 108L91 107M97 107L98 108L97 107M118 107L119 108L118 107M147 107L148 108L147 107M154 107L155 108L154 107M160.333 107.667L160.667 108.333L160.333 107.667M170 107L171 108L170 107M83 108L84 109L83 108M101 108L102 109L101 108M107 108L108 109L107 108M121 108L122 109L121 108M128 108L129 109L128 108M137 108L138 109L137 108M141 108L142 109L141 108M163.333 108.667L163.667 109.333L163.333 108.667M42 109L43 110L42 109M90 109L91 110L90 109M96 109L97 110L96 109M111 109L112 110L111 109M117 109L118 110L117 109M127.333 109.667L127.667 110.333L127.333 109.667z"/>
  <path style="fill:#5c5d5f; stroke:none;" d="M131 109L132 110L131 109z"/>
  <path style="fill:#a8a3a5; stroke:none;" d="M146 109L147 110L146 109M153 109L154 110L153 109M159.333 109.667L159.667 110.333L159.333 109.667M169 109L170 110L169 109z"/>
  <path style="fill:#5c5d5f; stroke:none;" d="M42 110L43 111L42 110z"/>
  <path style="fill:#a8a3a5; stroke:none;" d="M82 110L83 111L82 110M100 110L101 111L100 110M106 110L107 111L106 110M120 110L121 111L120 110M130 110L131 111L130 110M136 110L137 111L136 110M140 110L141 111L140 110M162 110L163 111L162 110M41 111L42 112L41 111M89 111L90 112L89 111M110 111L111 112L110 111M116 111L117 112L116 111M126.333 111.667L126.667 112.333L126.333 111.667M145 111L146 112L145 111M152 111L153 112L152 111M158.333 111.667L158.667 112.333L158.333 111.667z"/>
  <path style="fill:#5c5d5f; stroke:none;" d="M162 111L163 112L162 111M81 112L82 113L81 112z"/>
  <path style="fill:#a8a3a5; stroke:none;" d="M94 112L95 113L94 112M99 112L100 113L99 112M105 112L106 113L105 112M119 112L120 113L119 112M129 112L130 113L129 112M135 112L136 113L135 112M139 112L140 113L139 112M161 112L160 115L161 112M167 112L168 113L167 112M40 113L41 114L40 113M88 113L89 114L88 113M104.333 113.667L104.667 114.333L104.333 113.667M109 113L110 114L109 113M115 113L116 114L115 113M125.333 113.667L125.667 114.333L125.333 113.667M144 113L145 114L144 113M151 113L152 114L151 113M157 113L159 116L157 113z"/>
  <path style="fill:#5c5d5f; stroke:none;" d="M40 114L41 115L40 114z"/>
  <path style="fill:#a8a3a5; stroke:none;" d="M80 114L81 115L80 114M93 114L94 115L93 114M98 114L99 115L98 114M118 114L119 115L118 114M128 114L129 115L128 114M134 114L135 115L134 114M138 114L139 115L138 114M166 114L167 115L166 114M39 115L40 116L39 115z"/>
  <path style="fill:#5c5d5f; stroke:none;" d="M79 115L80 116L79 115z"/>
  <path style="fill:#a8a3a5; stroke:none;" d="M87 115L88 116L87 115M103.333 115.667L103.667 116.333L103.333 115.667M108 115L109 116L108 115M114 115L115 116L114 115M126 115L127 116L126 115M144 115L145 116L144 115M150 115L151 116L150 115M79 116L80 117L79 116M92 116L93 117L92 116M97 116L98 117L97 116M117 116L117 119L118 119L117 116M137 116L137 119L138 119L137 116M145 116L147 118L147 116L145 116M165 116L166 117L165 116z"/>
  <path style="fill:#5c5d5f; stroke:none;" d="M38 117L39 118L38 117z"/>
  <path style="fill:#a8a3a5; stroke:none;" d="M86 117L87 118L86 117z"/>
  <path style="fill:#5c5d5f; stroke:none;" d="M102 117L103 118L102 117z"/>
  <path style="fill:#a8a3a5; stroke:none;" d="M107 117L108 118L107 117M113 117L114 118L113 117M164 117L165 118L164 117M37 118L38 119L37 118M78 118L79 119L78 118M91 118L92 119L91 118M96 118L97 119L96 118z"/>
  <path style="fill:#5c5d5f; stroke:none;" d="M101 118L102 119L101 118M112 118L113 119L112 118M37 119L38 120L37 119M77 119L78 120L77 119M85 119L86 120L85 119z"/>
  <path style="fill:#a8a3a5; stroke:none;" d="M106 119L107 120L106 119z"/>
  <path style="fill:#5c5d5f; stroke:none;" d="M118 119L119 120L118 119z"/>
  <path style="fill:#a8a3a5; stroke:none;" d="M129 119L130 120L129 119M145 119L146 120L145 119M150 119L151 120L150 119M161 119L162 120L161 119M36 120L37 121L36 120M77 120L78 121L77 120M89 120L90 121L89 120M95 120L96 121L95 120M99 120L100 121L99 120z"/>
  <path style="fill:#5c5d5f; stroke:none;" d="M106 120L107 121L106 120z"/>
  <path style="fill:#a8a3a5; stroke:none;" d="M110 120L111 121L110 120z"/>
  <path style="fill:#5c5d5f; stroke:none;" d="M119 120L120 121L119 120z"/>
  <path style="fill:#a8a3a5; stroke:none;" d="M127 120L128 121L127 120z"/>
  <path style="fill:#5c5d5f; stroke:none;" d="M158 120L159 121L158 120z"/>
  <path style="fill:#a8a3a5; stroke:none;" d="M159 120L160 121L159 120z"/>
  <path style="fill:#5c5d5f; stroke:none;" d="M36 121L37 122L36 121M76 121L77 122L76 121z"/>
  <path style="fill:#a8a3a5; stroke:none;" d="M124.667 121.333L125.333 121.667L124.667 121.333M140 121L140 122L144 122L140 121M152 121L152 122L158 122L152 121M35 122L36 123L35 122M76 122L77 123L76 122z"/>
  <path style="fill:#5c5d5f; stroke:none;" d="M35 123L36 124L35 123z"/>
  <path style="fill:#a8a3a5; stroke:none;" d="M75 123L76 124L75 123M34 124L35 125L34 124M74 125L73 130L74 130L90 128L90 127L74 125M33 126L34 127L33 126z"/>
  <path style="fill:#12191c; stroke:none;" d="M60 157C67.057 157 77.3498 158.909 83.9853 156.397C91.7855 153.443 98.8232 136.542 101 129L100 128C92.725 129.038 82.1211 125.371 75.4151 128.603C68.6724 131.854 61.9861 150.106 60 157z"/>
  <path style="fill:#5c5d5f; stroke:none;" d="M94 128L94 129L98 129L94 128M100 128L102 130L102 128L100 128z"/>
  <path style="fill:#a8a3a5; stroke:none;" d="M160 129L161 130L160 129z"/>
  <path style="fill:#a62a4b; stroke:none;" d="M164 129C156.429 130.611 145.336 151.214 145.361 158.941C145.371 162.034 149.7 164.518 151.696 161.396C155.024 156.19 153.492 148.887 158.525 143.144C163.878 137.036 163.482 137.067 164 129z"/>
  <path style="fill:#a8a3a5; stroke:none;" d="M164.333 129.667L164.667 130.333L164.333 129.667M72 131L71 133L72 131z"/>
  <path style="fill:#5c5d5f; stroke:none;" d="M100 131L101 132L100 131z"/>
  <path style="fill:#a8a3a5; stroke:none;" d="M158 131L159 132L158 131z"/>
  <path style="fill:#5c5d5f; stroke:none;" d="M72 132L73 133L72 132z"/>
  <path style="fill:#a8a3a5; stroke:none;" d="M163 132L164 133L163 132z"/>
  <path style="fill:#5c5d5f; stroke:none;" d="M71 133L72 134L71 133M99 133L100 134L99 133z"/>
  <path style="fill:#a8a3a5; stroke:none;" d="M157 133L158 134L157 133M70 134L71 135L70 134M111 134L111 135L128 135L111 134M142 134L142 135L148 135L142 134M163 134L164 135L163 134M174 134L174 135L181 135L174 134z"/>
  <path style="fill:#5c5d5f; stroke:none;" d="M70 135L71 136L70 135M98 135L99 136L98 135z"/>
  <path style="fill:#a8a3a5; stroke:none;" d="M108.667 135.333L109.333 135.667L108.667 135.333z"/>
  <path style="fill:#a62a4b; stroke:none;" d="M92 163C103.46 161.693 103.114 144.721 113 140L103 163C114.237 160.624 112.907 141.484 124 141L114 163C119.966 161.738 133.496 142.654 128.958 136.603C126.94 133.913 120.906 134.995 118 135C102.326 135.025 97.3424 150.168 92 163z"/>
  <path style="fill:#a8a3a5; stroke:none;" d="M129 135L130 136L129 135M140 135L141 136L140 135z"/>
  <path style="fill:#a62a4b; stroke:none;" d="M141.001 135.653C133.799 137.909 128.085 149.173 125.985 155.999C124.255 161.624 129.13 163.848 133.999 162.346C142.337 159.775 157.95 130.343 141.001 135.653z"/>
  <path style="fill:#a8a3a5; stroke:none;" d="M149 135L150 136L149 135M156 135L157 136L156 135M165.333 135.667L165.667 136.333L165.333 135.667M172 135L173 136L172 135z"/>
  <path style="fill:#a62a4b; stroke:none;" d="M167 142L175 140L173 147C166.466 145.196 152.646 153.465 158.222 161.397C160.246 164.275 171.442 162.642 175 163C173.256 153.379 183.134 146.77 181.577 138.148C180.169 130.354 168.337 137.483 167 142z"/>
  <path style="fill:#5c5d5f; stroke:none;" d="M181 135L182 136L181 135z"/>
  <path style="fill:#a8a3a5; stroke:none;" d="M69 136L70 137L69 136M138 136L139 137L138 136M170 136L171 137L170 136M182 136L182 140L183 140L182 136M97 137L98 138L97 137M105 137L106 138L105 137M130 137L130 140L131 140L130 137M136 137L137 138L136 137M150 137L150 140L151 140L150 137M68 138L69 139L68 138z"/>
  <path style="fill:#5c5d5f; stroke:none;" d="M96 138L97 139L96 138z"/>
  <path style="fill:#a8a3a5; stroke:none;" d="M154 138L155 139L154 138M164 138L165 139L164 138M96 139L97 140L96 139z"/>
  <path style="fill:#5c5d5f; stroke:none;" d="M154 139L155 140L154 139z"/>
  <path style="fill:#a8a3a5; stroke:none;" d="M67 140L68 141L67 140z"/>
  <path style="fill:#5c5d5f; stroke:none;" d="M95 140L96 141L95 140z"/>
  <path style="fill:#a8a3a5; stroke:none;" d="M103 140L104 141L103 140M112 140L113 141L112 140M120 140L121 141L120 140M139 143L143 141L138 151L139 151L144 141L139 143M153 140L154 141L153 140M160 140L160 141L163 141L160 140M166 140C166.654 143.054 168.007 142.936 171 143L171 142L166 140M173.667 140.333L174.333 140.667L173.667 140.333M95 141L96 142L95 141M119 141L120 142L119 141M123.333 141.667L123.667 142.333L123.333 141.667M129.333 141.667L129.667 142.333L129.333 141.667M133 141L134 142L133 141z"/>
  <path style="fill:#fefdfd; stroke:none;" d="M133 157L143 141C137.438 143.89 134.677 151.177 133 157z"/>
  <path style="fill:#a8a3a5; stroke:none;" d="M149 141L150 142L149 141z"/>
  <path style="fill:#5c5d5f; stroke:none;" d="M153 141L154 142L153 141z"/>
  <path style="fill:#a8a3a5; stroke:none;" d="M171 141L172 142L171 141M181 141L182 142L181 141M66 142L67 143L66 142z"/>
  <path style="fill:#5c5d5f; stroke:none;" d="M94 142L95 143L94 142z"/>
  <path style="fill:#a8a3a5; stroke:none;" d="M102 142L103 143L102 142M112.333 142.667L112.667 143.333L112.333 142.667z"/>
  <path style="fill:#5c5d5f; stroke:none;" d="M118 142L119 143L118 142z"/>
  <path style="fill:#a8a3a5; stroke:none;" d="M152 142L153 143L152 142M158 142L159 143L158 142M174.333 142.667L174.667 143.333L174.333 142.667M94 143L95 144L94 143M107 143L108 144L107 143M132 143L133 144L132 143z"/>
  <path style="fill:#5c5d5f; stroke:none;" d="M138 143L139 144L138 143z"/>
  <path style="fill:#a8a3a5; stroke:none;" d="M148 143L149 144L148 143M180 143L181 144L180 143M65 144L66 145L65 144z"/>
  <path style="fill:#5c5d5f; stroke:none;" d="M93 144L94 145L93 144z"/>
  <path style="fill:#a8a3a5; stroke:none;" d="M111.333 144.667L111.667 145.333L111.333 144.667M117 144L118 145L117 144M122 144L123 145L122 144M138 144L139 145L138 144M151 144L152 145L151 144M173.333 144.667L173.667 145.333L173.333 144.667M93 145L94 146L93 145M100 145L101 146L100 145M106 145L107 146L106 145M127 145L128 146L127 145M131 145L132 146L131 145M147 145L148 146L147 145M156 145L157 146L156 145M179 145L180 146L179 145M64 146L65 147L64 146z"/>
  <path style="fill:#5c5d5f; stroke:none;" d="M92 146L93 147L92 146z"/>
  <path style="fill:#a8a3a5; stroke:none;" d="M116 146L117 147L116 146M121 146L122 147L121 146M137 146L138 147L137 146M146 146L147 147L146 146M150 146L151 147L150 146M164.667 146.333L165.333 146.667L164.667 146.333M167 146L168 147L167 146M172 146L173 147L172 146M99 147L100 148L99 147M105 147L106 148L105 147M110 147L111 148L110 147M126 147L127 148L126 147M130 147L131 148L130 147z"/>
  <path style="fill:#5c5d5f; stroke:none;" d="M136 147L137 148L136 147z"/>
  <path style="fill:#a8a3a5; stroke:none;" d="M155 147L156 148L155 147M163 147L164 148L163 147M178 147L179 148L178 147z"/>
  <path style="fill:#5c5d5f; stroke:none;" d="M63 148L64 149L63 148z"/>
  <path style="fill:#a8a3a5; stroke:none;" d="M91 148L92 149L91 148M115 148L116 149L115 148M120 148L121 149L120 148M136 148L137 149L136 148M145 148L146 149L145 148M149 148L150 149L149 148M62 149L63 150L62 149M98 149L99 150L98 149M104 149L105 150L104 149M125 149L126 150L125 149M154 149L155 150L154 149M161 149L162 150L161 149M177 149L178 150L177 149z"/>
  <path style="fill:#5c5d5f; stroke:none;" d="M62 150L63 151L62 150z"/>
  <path style="fill:#a8a3a5; stroke:none;" d="M90 150L91 151L90 150M108 150L109 151L108 150M114 150L115 151L114 150M128 150L129 151L128 150M135 150L136 151L135 150M144 150L145 151L144 150M148 150L149 151L148 150M61 151L62 152L61 151z"/>
  <path style="fill:#5c5d5f; stroke:none;" d="M89 151L90 152L89 151z"/>
  <path style="fill:#a8a3a5; stroke:none;" d="M97 151L98 152L97 151M103 151L104 152L103 151M118 151L119 152L118 151M124 151L125 152L124 151M134.333 151.667L134.667 152.333L134.333 151.667z"/>
  <path style="fill:#5c5d5f; stroke:none;" d="M138 151L139 152L138 151z"/>
  <path style="fill:#a8a3a5; stroke:none;" d="M153 151L154 152L153 151M160 151L161 152L160 151M166 158C166.327 154.821 166.888 153.803 170 153C166.929 149.922 163.116 155.196 166 158z"/>
  <path style="fill:#5c5d5f; stroke:none;" d="M170 151L171 152L170 151z"/>
  <path style="fill:#a8a3a5; stroke:none;" d="M176 151L177 152L176 151z"/>
  <path style="fill:#5c5d5f; stroke:none;" d="M61 152L62 153L61 152z"/>
  <path style="fill:#a8a3a5; stroke:none;" d="M89 152L90 153L89 152M107 152L108 153L107 152M113 152L114 153L113 152M127 152L128 153L127 152M137 152L138 153L137 152M143 152L144 153L143 152M147 152L148 153L147 152z"/>
  <path style="fill:#fefdfd; stroke:none;" d="M167 152L165 157L169 152L167 152z"/>
  <path style="fill:#a8a3a5; stroke:none;" d="M60 153L61 154L60 153z"/>
  <path style="fill:#5c5d5f; stroke:none;" d="M88 153L89 154L88 153z"/>
  <path style="fill:#a8a3a5; stroke:none;" d="M96 153L97 154L96 153M117 153L118 154L117 153M123 153L124 154L123 153M133.333 153.667L133.667 154.333L133.333 153.667M152 153L153 154L152 153M159 153L160 154L159 153z"/>
  <path style="fill:#5c5d5f; stroke:none;" d="M169 153L170 154L169 153M60 154L61 155L60 154M87 154L88 155L87 154z"/>
  <path style="fill:#a8a3a5; stroke:none;" d="M101 154L102 155L101 154M106 154L107 155L106 154M112 154L113 155L112 154M126 154L127 155L126 154M136 154L137 155L136 154M142 154L143 155L142 154M146 154L147 155L146 154M168 154L167 157L168 154M174 154L175 155L174 154M59 155L60 156L59 155z"/>
  <path style="fill:#5c5d5f; stroke:none;" d="M86 155L87 156L86 155z"/>
  <path style="fill:#a8a3a5; stroke:none;" d="M95 155L96 156L95 155M111.333 155.667L111.667 156.333L111.333 155.667M116 155L117 156L116 155M122 155L123 156L122 155M132.333 155.667L132.667 156.333L132.333 155.667M151 155L152 156L151 155M158 155L159 156L158 155z"/>
  <path style="fill:#5c5d5f; stroke:none;" d="M59 156C62.9894 160.565 77.1323 158 83 158L83 157L59 156z"/>
  <path style="fill:#a8a3a5; stroke:none;" d="M85 156L86 157L85 156M100 156L101 157L100 156M105 156L106 157L105 156M125 156L126 157L125 156M135 156L136 157L135 156M141 156L142 157L141 156M145 156L146 157L145 156M173 156L173 159L174 159L173 156M58 157L59 158L58 157M83 157L84 158L83 157M94 157L95 158L94 157M110.333 157.667L110.667 158.333L110.333 157.667M115 157L116 158L115 157M121 157L122 158L121 157M133 157L134 158L133 157M151 157L152 158L151 157M157 157L158 158L157 157M99 158L100 159L99 158M104 158L105 159L104 158M124 158L124 161L125 161L124 158M144 158L144 161L145 161L144 158M152 158L154 160L154 158L152 158M93 159L94 160L93 159z"/>
  <path style="fill:#5c5d5f; stroke:none;" d="M109 159L110 160L109 159z"/>
  <path style="fill:#a8a3a5; stroke:none;" d="M114 159L115 160L114 159M120 159L121 160L120 159M174 159L175 160L174 159M98 160L99 161L98 160M103 160L104 161L103 160z"/>
  <path style="fill:#5c5d5f; stroke:none;" d="M108 160L109 161L108 160M119 160L120 161L119 160M92 161L93 162L92 161z"/>
  <path style="fill:#a8a3a5; stroke:none;" d="M113 161L114 162L113 161z"/>
  <path style="fill:#5c5d5f; stroke:none;" d="M125 161L126 162L125 161z"/>
  <path style="fill:#a8a3a5; stroke:none;" d="M136 161L137 162L136 161M152 161L153 162L152 161M157 161L158 162L157 161M168 161L169 162L168 161M175.333 161.667L175.667 162.333L175.333 161.667M96 162L97 163L96 162M102 162L103 163L102 162M106 162L107 163L106 162z"/>
  <path style="fill:#5c5d5f; stroke:none;" d="M113 162L114 163L113 162z"/>
  <path style="fill:#a8a3a5; stroke:none;" d="M117 162L118 163L117 162z"/>
  <path style="fill:#5c5d5f; stroke:none;" d="M126 162L127 163L126 162z"/>
  <path style="fill:#a8a3a5; stroke:none;" d="M134 162L135 163L134 162z"/>
  <path style="fill:#5c5d5f; stroke:none;" d="M165 162L166 163L165 162z"/>
  <path style="fill:#a8a3a5; stroke:none;" d="M166 162L167 163L166 162M127 163L127 164L133 164L127 163M147 163L147 164L151 164L147 163M159 163L159 164L165 164L159 163M172 163L173 164L172 163z"/>
</svg>
